<?xml version="1.0" standalone="no"?>
<!DOCTYPE svg PUBLIC "-//W3C//DTD SVG 20010904//EN"
 "http://www.w3.org/TR/2001/REC-SVG-20010904/DTD/svg10.dtd">
<svg version="1.0" xmlns="http://www.w3.org/2000/svg"
 width="321.000000pt" height="321.000000pt" viewBox="0 0 321.000000 321.000000"
 preserveAspectRatio="xMidYMid meet">
<metadata>
Created by potrace 1.11, written by Peter Selinger 2001-2013
</metadata>
<g transform="translate(0.000000,321.000000) scale(0.100000,-0.100000)"
fill="#000000" stroke="none">
<path d="M0 1605 l0 -1605 1605 0 1605 0 0 1605 0 1605 -1605 0 -1605 0 0
-1605z m1294 1054 c212 -51 338 -191 360 -404 11 -93 -11 -183 -158 -666 -82
-271 -136 -463 -136 -488 0 -54 41 -100 92 -102 75 -4 107 4 188 43 70 34 102
58 181 137 110 110 182 212 250 355 l47 101 -78 82 c-144 152 -200 273 -207
448 -8 175 27 287 122 393 156 174 462 168 640 -12 109 -111 155 -237 155
-427 0 -351 -184 -722 -526 -1062 -259 -258 -579 -439 -885 -502 -99 -21 -301
-23 -411 -5 -298 48 -488 187 -543 395 -20 80 -19 194 5 290 10 44 75 272 144
508 69 235 126 442 126 461 0 36 -33 88 -94 145 -45 43 -48 88 -11 143 104
154 461 234 739 167z"/>
</g>
</svg>
